<svg width="545" height="204" viewBox="0 0 545 204" fill="none" xmlns="http://www.w3.org/2000/svg">
<line x1="9.5" y1="4.15259e-07" x2="9.49999" y2="198" stroke="black" stroke-width="19"/>
<circle cx="76" cy="102" r="31" fill="#626262"/>
<path fill-rule="evenodd" clip-rule="evenodd" d="M27 101L38.3137 89.6863L128 0L139.314 11.3137L89.8484 60.779C94.1819 63.9888 99.1431 68.1979 102.481 72.8096C108.534 81.1738 113.689 88.7648 113.499 101.618C113.414 107.343 112.465 112.32 110.413 117.059C108.397 121.714 105.489 125.733 102.067 129.714C98.3632 134.024 92.9474 137.433 88.4444 139.817L141.314 192.686L130 204L38.3137 112.314L27 101ZM76.4829 127.855C77.2848 127.496 78.1431 127.095 79.0316 126.659C83.5783 124.424 87.807 121.759 89.9329 119.286C92.8451 115.897 94.6159 113.274 95.7304 110.701C96.8081 108.212 97.4418 105.374 97.5009 101.382C97.6089 94.0772 95.2857 90.1579 89.5192 82.1904C87.2045 78.9922 82.8405 75.3658 78.3872 72.2402L49.6274 101L76.4829 127.855Z" fill="black"/>
<path d="M163.792 119L155.112 106.12V119H144.136V77.56H155.112V99.904L163.792 87.584H176.952L164.576 103.376L177.176 119H163.792ZM192.778 119.392C189.94 119.392 187.402 118.925 185.162 117.992C182.959 117.021 181.204 115.715 179.898 114.072C178.628 112.392 177.919 110.507 177.77 108.416H188.41C188.559 109.424 189.026 110.208 189.81 110.768C190.594 111.328 191.564 111.608 192.722 111.608C193.618 111.608 194.327 111.421 194.85 111.048C195.372 110.675 195.634 110.189 195.634 109.592C195.634 108.808 195.204 108.229 194.346 107.856C193.487 107.483 192.068 107.072 190.09 106.624C187.85 106.176 185.983 105.672 184.49 105.112C182.996 104.552 181.69 103.637 180.57 102.368C179.487 101.099 178.946 99.3813 178.946 97.216C178.946 95.3493 179.45 93.6693 180.458 92.176C181.466 90.6453 182.94 89.432 184.882 88.536C186.86 87.64 189.231 87.192 191.994 87.192C196.1 87.192 199.33 88.2 201.682 90.216C204.034 92.232 205.396 94.8827 205.77 98.168H195.858C195.671 97.16 195.223 96.3947 194.514 95.872C193.842 95.312 192.927 95.032 191.77 95.032C190.874 95.032 190.183 95.2 189.698 95.536C189.25 95.872 189.026 96.3387 189.026 96.936C189.026 97.6827 189.455 98.2613 190.314 98.672C191.172 99.0453 192.554 99.4373 194.458 99.848C196.735 100.333 198.62 100.875 200.114 101.472C201.644 102.069 202.97 103.04 204.09 104.384C205.247 105.691 205.826 107.483 205.826 109.76C205.826 111.589 205.284 113.232 204.202 114.688C203.156 116.144 201.644 117.301 199.666 118.16C197.724 118.981 195.428 119.392 192.778 119.392ZM251.27 87.304C255.227 87.304 258.326 88.4987 260.566 90.888C262.843 93.2773 263.982 96.544 263.982 100.688V119H253.006V102.144C253.006 100.464 252.539 99.1573 251.606 98.224C250.673 97.2907 249.403 96.824 247.798 96.824C246.193 96.824 244.923 97.2907 243.99 98.224C243.057 99.1573 242.59 100.464 242.59 102.144V119H231.614V102.144C231.614 100.464 231.147 99.1573 230.214 98.224C229.318 97.2907 228.067 96.824 226.462 96.824C224.819 96.824 223.531 97.2907 222.598 98.224C221.665 99.1573 221.198 100.464 221.198 102.144V119H210.222V87.584H221.198V91.728C222.169 90.384 223.419 89.32 224.95 88.536C226.518 87.7147 228.31 87.304 230.326 87.304C232.641 87.304 234.694 87.808 236.486 88.816C238.315 89.824 239.753 91.2427 240.798 93.072C241.918 91.3547 243.393 89.9733 245.222 88.928C247.051 87.8453 249.067 87.304 251.27 87.304ZM274.539 84.672C272.598 84.672 271.03 84.1493 269.835 83.104C268.678 82.0213 268.099 80.6773 268.099 79.072C268.099 77.4293 268.678 76.0667 269.835 74.984C271.03 73.9013 272.598 73.36 274.539 73.36C276.443 73.36 277.974 73.9013 279.131 74.984C280.326 76.0667 280.923 77.4293 280.923 79.072C280.923 80.6773 280.326 82.0213 279.131 83.104C277.974 84.1493 276.443 84.672 274.539 84.672ZM279.971 87.584V119H268.995V87.584H279.971ZM303.758 109.648V119H298.998C290.971 119 286.958 115.024 286.958 107.072V96.712H283.094V87.584H286.958V79.968H297.99V87.584H303.702V96.712H297.99V107.24C297.99 108.099 298.177 108.715 298.55 109.088C298.961 109.461 299.633 109.648 300.566 109.648H303.758ZM321.176 119.392C318.339 119.392 315.8 118.925 313.56 117.992C311.358 117.021 309.603 115.715 308.296 114.072C307.027 112.392 306.318 110.507 306.168 108.416H316.808C316.958 109.424 317.424 110.208 318.208 110.768C318.992 111.328 319.963 111.608 321.12 111.608C322.016 111.608 322.726 111.421 323.248 111.048C323.771 110.675 324.032 110.189 324.032 109.592C324.032 108.808 323.603 108.229 322.744 107.856C321.886 107.483 320.467 107.072 318.488 106.624C316.248 106.176 314.382 105.672 312.888 105.112C311.395 104.552 310.088 103.637 308.968 102.368C307.886 101.099 307.344 99.3813 307.344 97.216C307.344 95.3493 307.848 93.6693 308.856 92.176C309.864 90.6453 311.339 89.432 313.28 88.536C315.259 87.64 317.63 87.192 320.392 87.192C324.499 87.192 327.728 88.2 330.08 90.216C332.432 92.232 333.795 94.8827 334.168 98.168H324.256C324.07 97.16 323.622 96.3947 322.912 95.872C322.24 95.312 321.326 95.032 320.168 95.032C319.272 95.032 318.582 95.2 318.096 95.536C317.648 95.872 317.424 96.3387 317.424 96.936C317.424 97.6827 317.854 98.2613 318.712 98.672C319.571 99.0453 320.952 99.4373 322.856 99.848C325.134 100.333 327.019 100.875 328.512 101.472C330.043 102.069 331.368 103.04 332.488 104.384C333.646 105.691 334.224 107.483 334.224 109.76C334.224 111.589 333.683 113.232 332.6 114.688C331.555 116.144 330.043 117.301 328.064 118.16C326.123 118.981 323.827 119.392 321.176 119.392ZM343.94 119.448C341.999 119.448 340.431 118.925 339.236 117.88C338.079 116.797 337.5 115.435 337.5 113.792C337.5 112.149 338.079 110.787 339.236 109.704C340.431 108.621 341.999 108.08 343.94 108.08C345.844 108.08 347.375 108.621 348.532 109.704C349.727 110.787 350.324 112.149 350.324 113.792C350.324 115.397 349.727 116.741 348.532 117.824C347.375 118.907 345.844 119.448 343.94 119.448ZM352.672 103.264C352.672 100.016 353.251 97.1787 354.408 94.752C355.603 92.3253 357.227 90.4587 359.28 89.152C361.333 87.8453 363.611 87.192 366.112 87.192C368.128 87.192 369.92 87.6213 371.488 88.48C373.093 89.3013 374.344 90.44 375.24 91.896V77.56H386.272V119H375.24V114.632C374.381 116.088 373.168 117.245 371.6 118.104C370.032 118.963 368.184 119.392 366.056 119.392C363.555 119.392 361.277 118.739 359.224 117.432C357.208 116.125 355.603 114.259 354.408 111.832C353.251 109.368 352.672 106.512 352.672 103.264ZM375.296 103.264C375.296 101.248 374.736 99.6613 373.616 98.504C372.533 97.3467 371.189 96.768 369.584 96.768C367.941 96.768 366.579 97.3467 365.496 98.504C364.413 99.624 363.872 101.211 363.872 103.264C363.872 105.28 364.413 106.885 365.496 108.08C366.579 109.237 367.941 109.816 369.584 109.816C371.189 109.816 372.533 109.237 373.616 108.08C374.736 106.923 375.296 105.317 375.296 103.264ZM421.543 102.928C421.543 103.787 421.487 104.645 421.375 105.504H400.599C400.711 107.221 401.177 108.509 401.999 109.368C402.857 110.189 403.94 110.6 405.247 110.6C407.076 110.6 408.383 109.779 409.167 108.136H420.871C420.385 110.301 419.433 112.243 418.015 113.96C416.633 115.64 414.879 116.965 412.751 117.936C410.623 118.907 408.271 119.392 405.695 119.392C402.596 119.392 399.833 118.739 397.407 117.432C395.017 116.125 393.132 114.259 391.751 111.832C390.407 109.405 389.735 106.549 389.735 103.264C389.735 99.9787 390.407 97.1413 391.751 94.752C393.095 92.3253 394.961 90.4587 397.351 89.152C399.777 87.8453 402.559 87.192 405.695 87.192C408.793 87.192 411.537 87.8267 413.927 89.096C416.316 90.3653 418.183 92.1947 419.527 94.584C420.871 96.936 421.543 99.7173 421.543 102.928ZM410.343 100.184C410.343 98.84 409.895 97.7947 408.999 97.048C408.103 96.264 406.983 95.872 405.639 95.872C404.295 95.872 403.193 96.2453 402.335 96.992C401.476 97.7013 400.916 98.7653 400.655 100.184H410.343ZM438.418 119.392C435.581 119.392 433.042 118.925 430.802 117.992C428.6 117.021 426.845 115.715 425.538 114.072C424.269 112.392 423.56 110.507 423.41 108.416H434.05C434.2 109.424 434.666 110.208 435.45 110.768C436.234 111.328 437.205 111.608 438.362 111.608C439.258 111.608 439.968 111.421 440.49 111.048C441.013 110.675 441.274 110.189 441.274 109.592C441.274 108.808 440.845 108.229 439.986 107.856C439.128 107.483 437.709 107.072 435.73 106.624C433.49 106.176 431.624 105.672 430.13 105.112C428.637 104.552 427.33 103.637 426.21 102.368C425.128 101.099 424.586 99.3813 424.586 97.216C424.586 95.3493 425.09 93.6693 426.098 92.176C427.106 90.6453 428.581 89.432 430.522 88.536C432.501 87.64 434.872 87.192 437.634 87.192C441.741 87.192 444.97 88.2 447.322 90.216C449.674 92.232 451.037 94.8827 451.41 98.168H441.498C441.312 97.16 440.864 96.3947 440.154 95.872C439.482 95.312 438.568 95.032 437.41 95.032C436.514 95.032 435.824 95.2 435.338 95.536C434.89 95.872 434.666 96.3387 434.666 96.936C434.666 97.6827 435.096 98.2613 435.954 98.672C436.813 99.0453 438.194 99.4373 440.098 99.848C442.376 100.333 444.261 100.875 445.754 101.472C447.285 102.069 448.61 103.04 449.73 104.384C450.888 105.691 451.466 107.483 451.466 109.76C451.466 111.589 450.925 113.232 449.842 114.688C448.797 116.144 447.285 117.301 445.306 118.16C443.365 118.981 441.069 119.392 438.418 119.392ZM461.407 84.672C459.465 84.672 457.897 84.1493 456.703 83.104C455.545 82.0213 454.967 80.6773 454.967 79.072C454.967 77.4293 455.545 76.0667 456.703 74.984C457.897 73.9013 459.465 73.36 461.407 73.36C463.311 73.36 464.841 73.9013 465.999 74.984C467.193 76.0667 467.791 77.4293 467.791 79.072C467.791 80.6773 467.193 82.0213 465.999 83.104C464.841 84.1493 463.311 84.672 461.407 84.672ZM466.839 87.584V119H455.863V87.584H466.839ZM483.681 87.192C485.809 87.192 487.657 87.6213 489.225 88.48C490.83 89.3387 492.062 90.496 492.921 91.952V87.584H503.897V118.664C503.897 121.613 503.337 124.264 502.217 126.616C501.097 129.005 499.342 130.909 496.953 132.328C494.601 133.747 491.614 134.456 487.993 134.456C483.14 134.456 479.257 133.317 476.345 131.04C473.433 128.763 471.772 125.664 471.361 121.744H482.169C482.393 122.752 482.953 123.536 483.849 124.096C484.745 124.656 485.902 124.936 487.321 124.936C491.054 124.936 492.921 122.845 492.921 118.664V114.632C492.062 116.088 490.83 117.245 489.225 118.104C487.657 118.963 485.809 119.392 483.681 119.392C481.18 119.392 478.902 118.739 476.849 117.432C474.833 116.125 473.228 114.259 472.033 111.832C470.876 109.368 470.297 106.512 470.297 103.264C470.297 100.016 470.876 97.1787 472.033 94.752C473.228 92.3253 474.833 90.4587 476.849 89.152C478.902 87.8453 481.18 87.192 483.681 87.192ZM492.921 103.264C492.921 101.248 492.361 99.6613 491.241 98.504C490.158 97.3467 488.814 96.768 487.209 96.768C485.566 96.768 484.204 97.3467 483.121 98.504C482.038 99.624 481.497 101.211 481.497 103.264C481.497 105.28 482.038 106.885 483.121 108.08C484.204 109.237 485.566 109.816 487.209 109.816C488.814 109.816 490.158 109.237 491.241 108.08C492.361 106.923 492.921 105.317 492.921 103.264ZM529.704 87.304C533.325 87.304 536.2 88.5173 538.328 90.944C540.456 93.3333 541.52 96.5813 541.52 100.688V119H530.544V102.144C530.544 100.352 530.077 98.952 529.144 97.944C528.21 96.8987 526.96 96.376 525.392 96.376C523.749 96.376 522.461 96.8987 521.528 97.944C520.594 98.952 520.128 100.352 520.128 102.144V119H509.152V87.584H520.128V92.064C521.098 90.6453 522.405 89.5067 524.048 88.648C525.69 87.752 527.576 87.304 529.704 87.304Z" fill="black"/>
</svg>
